<?xml version="1.0" standalone="no"?><!DOCTYPE svg PUBLIC "-//W3C//DTD SVG 1.1//EN" "http://www.w3.org/Graphics/SVG/1.1/DTD/svg11.dtd"><svg t="1584174480008" class="icon" viewBox="0 0 1024 1024" version="1.1" xmlns="http://www.w3.org/2000/svg" p-id="3013" xmlns:xlink="http://www.w3.org/1999/xlink" width="128" height="128"><defs><style type="text/css"></style></defs><path d="M535.088 574.944V616a16 16 0 0 1-16 16h-16a16 16 0 0 1-16-16V544a16 16 0 0 1 16-16h16.496a72 72 0 1 0-71.216-85.392 16 16 0 0 1-15.792 13.392h-18.64a13.92 13.92 0 0 1-13.824-15.744 120.016 120.016 0 0 1 238.976 15.744 120.016 120.016 0 0 1-104 118.944z m-32 137.056a16 16 0 0 1-16-16v-16a16 16 0 0 1 16-16h16a16 16 0 0 1 16 16v16a16 16 0 0 1-16 16h-16zM512 800c159.056 0 288-128.944 288-288s-128.944-288-288-288-288 128.944-288 288 128.944 288 288 288z m0 48c-185.568 0-336-150.432-336-336s150.432-336 336-336 336 150.432 336 336-150.432 336-336 336z" p-id="3014" fill="#8a8a8a"></path></svg>