<?xml version="1.0" standalone="no"?><!DOCTYPE svg PUBLIC "-//W3C//DTD SVG 1.1//EN" "http://www.w3.org/Graphics/SVG/1.1/DTD/svg11.dtd"><svg t="1584410998783" class="icon" viewBox="0 0 1024 1024" version="1.1" xmlns="http://www.w3.org/2000/svg" p-id="1003" xmlns:xlink="http://www.w3.org/1999/xlink" width="128" height="128"><defs><style type="text/css"></style></defs><path d="M303.786667 728.405333a16.042667 16.042667 0 0 1-8.533334-2.389333 17.066667 17.066667 0 0 1-8.533333-15.701333l9.557333-152.917334a15.701333 15.701333 0 0 1 2.048-7.509333l178.176-307.2a16.384 16.384 0 0 1 10.581334-7.850667 15.701333 15.701333 0 0 1 12.970666 0l118.101334 68.266667a16.725333 16.725333 0 0 1 6.144 23.210667l-178.176 307.2a17.066667 17.066667 0 0 1-5.12 5.802666l-127.658667 86.016a16.725333 16.725333 0 0 1-9.557333 3.072z m26.282666-164.864l-7.168 114.688L418.816 614.4l167.594667-290.133333-88.746667-51.2z m102.4 63.146667z" fill="#8a8a8a" p-id="1004"></path><path d="M609.621333 335.189333a15.36 15.36 0 0 1-8.533333-2.389333l-118.101333-68.266667a17.408 17.408 0 0 1-5.12-23.210666l20.138666-34.133334a85.333333 85.333333 0 0 1 147.797334 85.333334l-20.138667 34.133333a16.042667 16.042667 0 0 1-10.24 7.850667z m-94.890666-91.477333l88.746666 51.2 10.922667-19.797333a51.541333 51.541333 0 0 0 5.12-38.912 50.517333 50.517333 0 0 0-23.893333-31.061334 51.541333 51.541333 0 0 0-38.912-5.12 52.224 52.224 0 0 0-31.061334 23.893334zM827.733333 810.666667h-580.266666a17.066667 17.066667 0 0 1 0-34.133334h580.266666a17.066667 17.066667 0 0 1 0 34.133334z" fill="#8a8a8a" p-id="1005"></path></svg>