<?xml version="1.0" standalone="no"?><!DOCTYPE svg PUBLIC "-//W3C//DTD SVG 1.1//EN" "http://www.w3.org/Graphics/SVG/1.1/DTD/svg11.dtd"><svg t="1584198471139" class="icon" viewBox="0 0 1024 1024" version="1.1" xmlns="http://www.w3.org/2000/svg" p-id="3563" xmlns:xlink="http://www.w3.org/1999/xlink" width="128" height="128"><defs><style type="text/css"></style></defs><path d="M497.632 609.504h16a16 16 0 0 1 16 16v48a16 16 0 0 1-16 16h-16a16 16 0 0 1-16-16v-48a16 16 0 0 1 16-16zM237.264 339.008l15.856-2.432a16 16 0 0 1 18.08 12.544l0.832 3.744c25.168 106.816 121.168 184.64 233.6 184.64 113.072 0 209.504-78.72 234-186.432l0.512-2.352a16 16 0 0 1 18.08-12.544l15.84 2.4a16 16 0 0 1 13.28 19.088 148.32 148.32 0 0 1-0.288 1.328c-28.4 130.736-144.768 226.512-281.44 226.512-136.192 0-252.256-95.136-281.12-225.264L224 358.08a16 16 0 0 1 13.248-19.072z m105.44 224.704l13.856 8a16 16 0 0 1 5.856 21.856l-24 41.568a16 16 0 0 1-21.856 5.856l-13.856-8a16 16 0 0 1-5.856-21.856l24-41.568a16 16 0 0 1 21.856-5.856z m-111.28-117.12l8 13.84a16 16 0 0 1-5.856 21.856L192 506.288a16 16 0 0 1-21.856-5.856l-8-13.856a16 16 0 0 1 5.856-21.856l41.568-24a16 16 0 0 1 21.856 5.856z m540.4 13.84l8-13.856a16 16 0 0 1 21.856-5.856l41.568 24a16 16 0 0 1 5.856 21.856l-8 13.856a16 16 0 0 1-21.856 5.856l-41.568-24a16 16 0 0 1-5.856-21.856z m-117.12 111.28l13.856-8a16 16 0 0 1 21.856 5.856l24 41.568a16 16 0 0 1-5.856 21.856l-13.856 8a16 16 0 0 1-21.856-5.856l-24-41.568a16 16 0 0 1 5.856-21.856z" p-id="3564" fill="#8a8a8a"></path></svg>