<?xml version="1.0" standalone="no"?><!DOCTYPE svg PUBLIC "-//W3C//DTD SVG 1.1//EN" "http://www.w3.org/Graphics/SVG/1.1/DTD/svg11.dtd"><svg t="1584409615307" class="icon" viewBox="0 0 1024 1024" version="1.1" xmlns="http://www.w3.org/2000/svg" p-id="4513" xmlns:xlink="http://www.w3.org/1999/xlink" width="128" height="128"><defs><style type="text/css"></style></defs><path d="M699.2 128c-72.8 0-141.4 33.4-187.2 87.8C466.2 161.4 397.6 128 324.8 128 195.8 128 96 228.4 96 358.2c0 159 141.4 286.6 355.6 483.4L512 896l60.4-54.4C786.6 644.8 928 517.2 928 358.2 928 228.4 828.2 128 699.2 128z m-161.6 658.6l-8.4 7.8-17.2 15.6-17.2-15.6-8.4-7.8c-100.8-92.6-188-172.6-245.4-244-56-69.4-80.8-126.2-80.8-184.4 0-45.8 16.8-87.8 47.4-118.6 30.4-30.8 72-47.6 117.2-47.6 52.2 0 104 24.4 138.2 65l49 58.2 49-58.2c34.2-40.8 86-65 138.2-65 45.2 0 86.8 16.8 117.4 47.6 30.6 30.8 47.4 73 47.4 118.6 0 58-25 115-80.8 184.4-57.6 71.4-144.6 151.4-245.6 244z" p-id="4514" fill="#8a8a8a"></path></svg>