<?xml version="1.0" standalone="no"?><!DOCTYPE svg PUBLIC "-//W3C//DTD SVG 1.1//EN" "http://www.w3.org/Graphics/SVG/1.1/DTD/svg11.dtd"><svg t="1584766466798" class="icon" viewBox="0 0 1024 1024" version="1.1" xmlns="http://www.w3.org/2000/svg" p-id="1213" xmlns:xlink="http://www.w3.org/1999/xlink" width="128" height="128"><defs><style type="text/css"></style></defs><path d="M896 467.2c12.8-12.8 19.2-32 12.8-48-6.4-16-19.2-28.8-38.4-32l-208-32c-6.4 0-9.6-3.2-12.8-9.6l-92.8-188.8c-9.6-16-25.6-25.6-41.6-25.6-19.2 0-35.2 9.6-44.8 25.6l-92.8 188.8c-3.2 3.2-6.4 9.6-12.8 9.6l-211.2 28.8c-19.2 3.2-32 16-38.4 32-6.4 16 0 35.2 12.8 48l150.4 147.2c3.2 3.2 6.4 9.6 3.2 12.8L246.4 832c-3.2 19.2 3.2 35.2 19.2 48 16 16 35.2 16 51.2 9.6l188.8-99.2c3.2-3.2 9.6-3.2 16 0l188.8 99.2c6.4 3.2 16 6.4 22.4 6.4 9.6 0 19.2-3.2 28.8-9.6 16-9.6 22.4-28.8 19.2-48l-35.2-208c0-6.4 0-9.6 3.2-12.8l147.2-150.4z m-185.6 166.4l35.2 208c0 6.4 0 12.8-6.4 16-6.4 3.2-12.8 3.2-16 0l-185.6-99.2c-6.4-3.2-16-6.4-22.4-6.4s-16 3.2-22.4 6.4l-188.8 99.2c-6.4 3.2-12.8 3.2-16 0-6.4-3.2-6.4-9.6-6.4-16l35.2-208c3.2-16-3.2-32-12.8-41.6l-150.4-147.2c-3.2-3.2-6.4-9.6-3.2-16-3.2-6.4 3.2-9.6 9.6-12.8l208-32c16-3.2 28.8-12.8 35.2-25.6l92.8-188.8c3.2-6.4 9.6-9.6 16-9.6s12.8 3.2 12.8 9.6l92.8 188.8c6.4 12.8 19.2 25.6 35.2 25.6l208 32c6.4 0 9.6 6.4 12.8 12.8 3.2 6.4 0 12.8-3.2 16l-150.4 147.2c-9.6 12.8-12.8 25.6-9.6 41.6z" p-id="1214" fill="#8a8a8a"></path></svg>