<?xml version="1.0" standalone="no"?><!DOCTYPE svg PUBLIC "-//W3C//DTD SVG 1.1//EN" "http://www.w3.org/Graphics/SVG/1.1/DTD/svg11.dtd"><svg t="1584409454052" class="icon" viewBox="0 0 1024 1024" version="1.1" xmlns="http://www.w3.org/2000/svg" p-id="4152" xmlns:xlink="http://www.w3.org/1999/xlink" width="128" height="128"><defs><style type="text/css"></style></defs><path d="M726 554h-172v172h-84v-172h-172v-84h172v-172h84v172h172v84z" p-id="4153" fill="#8a8a8a"></path><path d="M512 180c88.6 0 172 34.6 234.8 97.2C809.4 340 844 423.4 844 512s-34.6 172-97.2 234.8C684 809.4 600.6 844 512 844c-88.6 0-172-34.6-234.8-97.2C214.6 684 180 600.6 180 512c0-88.6 34.6-172 97.2-234.8C340 214.6 423.4 180 512 180m0-84C282.2 96 96 282.2 96 512s186.2 416 416 416 416-186.2 416-416S741.8 96 512 96z" p-id="4154" fill="#8a8a8a"></path></svg>