<?xml version="1.0" standalone="no"?><!DOCTYPE svg PUBLIC "-//W3C//DTD SVG 1.1//EN" "http://www.w3.org/Graphics/SVG/1.1/DTD/svg11.dtd"><svg t="1584249626592" class="icon" viewBox="0 0 1024 1024" version="1.1" xmlns="http://www.w3.org/2000/svg" p-id="933" xmlns:xlink="http://www.w3.org/1999/xlink" width="128" height="128"><defs><style type="text/css"></style></defs><path d="M585.856 96a32 32 0 0 1 31.776 28.352l10.24 89.28a319.68 319.68 0 0 1 84.544 48.896l82.464-35.84a32 32 0 0 1 40.448 13.344l73.856 127.936a32 32 0 0 1-8.64 41.696l-72.256 53.504a322.496 322.496 0 0 1 0 97.664l72.224 53.504a32 32 0 0 1 8.672 41.696L835.328 784a32 32 0 0 1-40.448 13.344l-82.464-35.84a319.68 319.68 0 0 1-84.544 48.896l-10.24 89.28a32 32 0 0 1-28.064 28.16l-3.712 0.192h-147.712a32 32 0 0 1-31.168-24.704l-0.64-3.648-10.24-89.28a319.68 319.68 0 0 1-84.48-48.864L229.12 797.312a32 32 0 0 1-38.4-10.24l-2.048-3.104L114.816 656a32 32 0 0 1 5.6-39.104l3.072-2.592 72.224-53.504a322.496 322.496 0 0 1 0-97.664l-72.224-53.504a32 32 0 0 1-10.464-38.112l1.792-3.584L188.672 240a32 32 0 0 1 36.96-14.624l3.488 1.28 82.496 35.84a319.68 319.68 0 0 1 84.48-48.896l10.24-89.28A32 32 0 0 1 438.176 96h147.712z m-28.576 64h-90.624l-11.36 99.296-36 13.984a255.36 255.36 0 0 0-58.688 32.256l-8.896 6.848-30.144 24.224-91.776-39.872-45.312 78.464 80.32 59.52-5.824 38.144a258.496 258.496 0 0 0-1.28 68.608l1.28 9.664 5.824 38.144-80.32 59.488 45.312 78.464 91.776-39.84 30.144 24.224c17.504 14.08 36.736 25.792 57.248 34.816l10.336 4.288 36 13.984 11.36 99.296h90.624l11.392-99.296 36-13.984a255.36 255.36 0 0 0 58.72-32.256l8.896-6.848 30.144-24.224 91.744 39.84 45.312-78.464-80.32-59.488 5.856-38.144a258.496 258.496 0 0 0 1.28-68.608l-1.28-9.664-5.824-38.144 80.288-59.52-45.312-78.464-91.744 39.872-30.144-24.224a255.936 255.936 0 0 0-57.248-34.816l-10.368-4.288-36-13.984L557.28 160zM512 352a160 160 0 1 1 0 320 160 160 0 0 1 0-320z m0 80a80 80 0 1 0 0 160 80 80 0 0 0 0-160z" fill="#2c2c2c" fill-opacity=".65" p-id="934"></path></svg>